<svg xmlns="http://www.w3.org/2000/svg" xmlns:xlink="http://www.w3.org/1999/xlink" width="2000" zoomAndPan="magnify" viewBox="0 0 1500 1499.999933" height="2000" preserveAspectRatio="xMidYMid meet" version="1.0"><defs><g/><clipPath id="1a61b59e20"><path d="M 180.960938 179 L 511 179 L 511 509 L 180.960938 509 Z M 180.960938 179 " clip-rule="nonzero"/></clipPath><clipPath id="09066087d5"><path d="M 180.960938 545 L 511 545 L 511 875 L 180.960938 875 Z M 180.960938 545 " clip-rule="nonzero"/></clipPath><clipPath id="ac6299007b"><path d="M 661.921875 750 L 1198 750 L 1198 1288 L 661.921875 1288 Z M 661.921875 750 " clip-rule="nonzero"/></clipPath><clipPath id="e40c76551d"><path d="M 1020.695312 750 C 850.707031 750 848.878906 815.984375 848.878906 829.566406 C 848.878906 850.171875 848.878906 912 848.878906 912 L 1023.96875 912 L 1023.96875 936.75 C 1023.96875 936.75 841.664062 936.75 779.332031 936.75 C 727.304688 936.75 661.921875 968.382812 661.921875 1108.566406 C 661.921875 1237.335938 712.921875 1287.132812 764.398438 1287.132812 C 779.679688 1287.132812 825.558594 1287.132812 825.558594 1287.132812 C 825.558594 1287.132812 825.558594 1223.214844 825.558594 1201.222656 C 825.558594 1165.28125 843.367188 1098.75 926.398438 1098.75 C 1030.535156 1098.75 1057.117188 1098.75 1100.054688 1098.75 C 1125.59375 1098.75 1197.621094 1087.648438 1197.621094 1004.453125 C 1197.621094 916.40625 1197.621094 887.355469 1197.621094 845.929688 C 1197.628906 825.292969 1194.097656 750 1020.695312 750 Z M 924.152344 805.433594 C 941.574219 805.433594 955.65625 819.507812 955.65625 836.9375 C 955.65625 854.355469 941.574219 868.441406 924.152344 868.441406 C 906.726562 868.441406 892.648438 854.359375 892.648438 836.9375 C 892.648438 819.507812 906.726562 805.433594 924.152344 805.433594 Z M 924.152344 805.433594 " clip-rule="nonzero"/></clipPath><linearGradient x1="53.765896" gradientTransform="matrix(6.545453, 0, 0, -6.545453, 311.691119, 1185.332167)" y1="66.766743" x2="135.58193" gradientUnits="userSpaceOnUse" y2="-15.323131" id="97f786b980"><stop stop-opacity="1" stop-color="rgb(21.958923%, 49.409485%, 72.158813%)" offset="0"/><stop stop-opacity="1" stop-color="rgb(21.957397%, 49.395752%, 72.135925%)" offset="0.125"/><stop stop-opacity="1" stop-color="rgb(21.948242%, 49.285889%, 71.948242%)" offset="0.140625"/><stop stop-opacity="1" stop-color="rgb(21.929932%, 49.093628%, 71.618652%)" offset="0.15625"/><stop stop-opacity="1" stop-color="rgb(21.911621%, 48.901367%, 71.287537%)" offset="0.171875"/><stop stop-opacity="1" stop-color="rgb(21.893311%, 48.709106%, 70.957947%)" offset="0.1875"/><stop stop-opacity="1" stop-color="rgb(21.875%, 48.516846%, 70.628357%)" offset="0.203125"/><stop stop-opacity="1" stop-color="rgb(21.856689%, 48.324585%, 70.297241%)" offset="0.21875"/><stop stop-opacity="1" stop-color="rgb(21.838379%, 48.132324%, 69.967651%)" offset="0.234375"/><stop stop-opacity="1" stop-color="rgb(21.820068%, 47.940063%, 69.636536%)" offset="0.25"/><stop stop-opacity="1" stop-color="rgb(21.801758%, 47.746277%, 69.306946%)" offset="0.265625"/><stop stop-opacity="1" stop-color="rgb(21.783447%, 47.554016%, 68.977356%)" offset="0.28125"/><stop stop-opacity="1" stop-color="rgb(21.765137%, 47.361755%, 68.64624%)" offset="0.296875"/><stop stop-opacity="1" stop-color="rgb(21.746826%, 47.169495%, 68.31665%)" offset="0.3125"/><stop stop-opacity="1" stop-color="rgb(21.728516%, 46.977234%, 67.987061%)" offset="0.328125"/><stop stop-opacity="1" stop-color="rgb(21.710205%, 46.784973%, 67.655945%)" offset="0.34375"/><stop stop-opacity="1" stop-color="rgb(21.691895%, 46.592712%, 67.326355%)" offset="0.359375"/><stop stop-opacity="1" stop-color="rgb(21.673584%, 46.400452%, 66.996765%)" offset="0.375"/><stop stop-opacity="1" stop-color="rgb(21.655273%, 46.208191%, 66.665649%)" offset="0.390625"/><stop stop-opacity="1" stop-color="rgb(21.636963%, 46.014404%, 66.33606%)" offset="0.40625"/><stop stop-opacity="1" stop-color="rgb(21.618652%, 45.822144%, 66.00647%)" offset="0.421875"/><stop stop-opacity="1" stop-color="rgb(21.600342%, 45.629883%, 65.675354%)" offset="0.4375"/><stop stop-opacity="1" stop-color="rgb(21.583557%, 45.437622%, 65.345764%)" offset="0.453125"/><stop stop-opacity="1" stop-color="rgb(21.565247%, 45.245361%, 65.016174%)" offset="0.46875"/><stop stop-opacity="1" stop-color="rgb(21.546936%, 45.053101%, 64.685059%)" offset="0.484375"/><stop stop-opacity="1" stop-color="rgb(21.528625%, 44.86084%, 64.355469%)" offset="0.4985"/><stop stop-opacity="1" stop-color="rgb(21.51947%, 44.764709%, 64.190674%)" offset="0.5"/><stop stop-opacity="1" stop-color="rgb(21.510315%, 44.668579%, 64.024353%)" offset="0.5015"/><stop stop-opacity="1" stop-color="rgb(21.50116%, 44.572449%, 63.859558%)" offset="0.515625"/><stop stop-opacity="1" stop-color="rgb(21.492004%, 44.476318%, 63.694763%)" offset="0.53125"/><stop stop-opacity="1" stop-color="rgb(21.473694%, 44.284058%, 63.365173%)" offset="0.546875"/><stop stop-opacity="1" stop-color="rgb(21.455383%, 44.090271%, 63.034058%)" offset="0.5625"/><stop stop-opacity="1" stop-color="rgb(21.437073%, 43.89801%, 62.704468%)" offset="0.578125"/><stop stop-opacity="1" stop-color="rgb(21.418762%, 43.70575%, 62.374878%)" offset="0.59375"/><stop stop-opacity="1" stop-color="rgb(21.400452%, 43.513489%, 62.043762%)" offset="0.609375"/><stop stop-opacity="1" stop-color="rgb(21.382141%, 43.321228%, 61.714172%)" offset="0.625"/><stop stop-opacity="1" stop-color="rgb(21.363831%, 43.128967%, 61.384583%)" offset="0.640625"/><stop stop-opacity="1" stop-color="rgb(21.34552%, 42.936707%, 61.053467%)" offset="0.65625"/><stop stop-opacity="1" stop-color="rgb(21.327209%, 42.744446%, 60.723877%)" offset="0.671875"/><stop stop-opacity="1" stop-color="rgb(21.308899%, 42.552185%, 60.394287%)" offset="0.6875"/><stop stop-opacity="1" stop-color="rgb(21.290588%, 42.358398%, 60.063171%)" offset="0.703125"/><stop stop-opacity="1" stop-color="rgb(21.272278%, 42.166138%, 59.733582%)" offset="0.71875"/><stop stop-opacity="1" stop-color="rgb(21.253967%, 41.973877%, 59.402466%)" offset="0.734375"/><stop stop-opacity="1" stop-color="rgb(21.235657%, 41.781616%, 59.072876%)" offset="0.75"/><stop stop-opacity="1" stop-color="rgb(21.217346%, 41.589355%, 58.743286%)" offset="0.765625"/><stop stop-opacity="1" stop-color="rgb(21.200562%, 41.397095%, 58.41217%)" offset="0.78125"/><stop stop-opacity="1" stop-color="rgb(21.185303%, 41.239929%, 58.143616%)" offset="0.8125"/><stop stop-opacity="1" stop-color="rgb(21.179199%, 41.178894%, 58.039856%)" offset="0.875"/><stop stop-opacity="1" stop-color="rgb(21.179199%, 41.178894%, 58.039856%)" offset="1"/></linearGradient><clipPath id="6a56f891b2"><path d="M 846 932 L 1381.921875 932 L 1381.921875 1470 L 846 1470 Z M 846 932 " clip-rule="nonzero"/></clipPath><clipPath id="95e262cdb5"><path d="M 1023.144531 1470 C 1193.058594 1470 1195.171875 1402.769531 1195.171875 1390.433594 C 1195.171875 1369.828125 1195.171875 1308 1195.171875 1308 L 1019.871094 1308 L 1019.871094 1283.25 C 1019.871094 1283.25 1203.355469 1283.25 1264.507812 1283.25 C 1316.929688 1283.25 1381.921875 1250.824219 1381.921875 1111.433594 C 1381.921875 958.78125 1312.945312 932.867188 1279.445312 932.867188 C 1264.15625 932.867188 1218.285156 932.867188 1218.285156 932.867188 C 1218.285156 932.867188 1218.285156 999.734375 1218.285156 1018.777344 C 1218.285156 1054.71875 1201.0625 1121.25 1117.445312 1121.25 C 1013.308594 1121.25 989.964844 1121.25 943.78125 1121.25 C 918.308594 1121.25 846.214844 1133.660156 846.214844 1215.546875 C 846.214844 1310.289062 846.214844 1335.097656 846.214844 1374.070312 C 846.214844 1408.300781 867.132812 1470 1023.144531 1470 Z M 1119.695312 1414.566406 C 1102.273438 1414.566406 1088.195312 1400.488281 1088.195312 1383.0625 C 1088.195312 1365.640625 1102.265625 1351.558594 1119.695312 1351.558594 C 1137.113281 1351.558594 1151.199219 1365.640625 1151.199219 1383.0625 C 1151.199219 1400.488281 1137.113281 1414.566406 1119.695312 1414.566406 Z M 1119.695312 1414.566406 " clip-rule="nonzero"/></clipPath><linearGradient x1="80.562445" gradientTransform="matrix(6.545453, 0, 0, -6.545453, 311.691119, 1185.332167)" y1="37.421935" x2="164.230991" gradientUnits="userSpaceOnUse" y2="-42.735609" id="18c4510d73"><stop stop-opacity="1" stop-color="rgb(100%, 87.838745%, 32.159424%)" offset="0"/><stop stop-opacity="1" stop-color="rgb(100%, 87.838745%, 32.159424%)" offset="0.125"/><stop stop-opacity="1" stop-color="rgb(100%, 87.838745%, 32.159424%)" offset="0.1875"/><stop stop-opacity="1" stop-color="rgb(100%, 87.788391%, 32.102966%)" offset="0.203125"/><stop stop-opacity="1" stop-color="rgb(100%, 87.612915%, 31.90155%)" offset="0.21875"/><stop stop-opacity="1" stop-color="rgb(100%, 87.359619%, 31.611633%)" offset="0.234375"/><stop stop-opacity="1" stop-color="rgb(100%, 87.106323%, 31.323242%)" offset="0.25"/><stop stop-opacity="1" stop-color="rgb(100%, 86.851501%, 31.034851%)" offset="0.265625"/><stop stop-opacity="1" stop-color="rgb(100%, 86.598206%, 30.74646%)" offset="0.28125"/><stop stop-opacity="1" stop-color="rgb(100%, 86.34491%, 30.458069%)" offset="0.296875"/><stop stop-opacity="1" stop-color="rgb(100%, 86.091614%, 30.169678%)" offset="0.3125"/><stop stop-opacity="1" stop-color="rgb(100%, 85.838318%, 29.881287%)" offset="0.328125"/><stop stop-opacity="1" stop-color="rgb(100%, 85.585022%, 29.592896%)" offset="0.34375"/><stop stop-opacity="1" stop-color="rgb(100%, 85.3302%, 29.304504%)" offset="0.359375"/><stop stop-opacity="1" stop-color="rgb(100%, 85.076904%, 29.014587%)" offset="0.375"/><stop stop-opacity="1" stop-color="rgb(100%, 84.823608%, 28.726196%)" offset="0.390625"/><stop stop-opacity="1" stop-color="rgb(100%, 84.570312%, 28.437805%)" offset="0.40625"/><stop stop-opacity="1" stop-color="rgb(100%, 84.317017%, 28.149414%)" offset="0.421875"/><stop stop-opacity="1" stop-color="rgb(100%, 84.062195%, 27.861023%)" offset="0.4375"/><stop stop-opacity="1" stop-color="rgb(100%, 83.808899%, 27.572632%)" offset="0.453125"/><stop stop-opacity="1" stop-color="rgb(100%, 83.555603%, 27.284241%)" offset="0.46875"/><stop stop-opacity="1" stop-color="rgb(100%, 83.302307%, 26.99585%)" offset="0.484375"/><stop stop-opacity="1" stop-color="rgb(100%, 83.049011%, 26.705933%)" offset="0.489949"/><stop stop-opacity="1" stop-color="rgb(100%, 82.922363%, 26.5625%)" offset="0.5"/><stop stop-opacity="1" stop-color="rgb(100%, 82.795715%, 26.417542%)" offset="0.510051"/><stop stop-opacity="1" stop-color="rgb(100%, 82.669067%, 26.274109%)" offset="0.515625"/><stop stop-opacity="1" stop-color="rgb(100%, 82.540894%, 26.12915%)" offset="0.53125"/><stop stop-opacity="1" stop-color="rgb(100%, 82.287598%, 25.840759%)" offset="0.546875"/><stop stop-opacity="1" stop-color="rgb(100%, 82.034302%, 25.552368%)" offset="0.5625"/><stop stop-opacity="1" stop-color="rgb(100%, 81.781006%, 25.263977%)" offset="0.578125"/><stop stop-opacity="1" stop-color="rgb(100%, 81.52771%, 24.975586%)" offset="0.59375"/><stop stop-opacity="1" stop-color="rgb(100%, 81.274414%, 24.687195%)" offset="0.609375"/><stop stop-opacity="1" stop-color="rgb(100%, 81.019592%, 24.398804%)" offset="0.625"/><stop stop-opacity="1" stop-color="rgb(100%, 80.766296%, 24.108887%)" offset="0.640625"/><stop stop-opacity="1" stop-color="rgb(100%, 80.513%, 23.820496%)" offset="0.65625"/><stop stop-opacity="1" stop-color="rgb(100%, 80.259705%, 23.532104%)" offset="0.671875"/><stop stop-opacity="1" stop-color="rgb(100%, 80.006409%, 23.243713%)" offset="0.6875"/><stop stop-opacity="1" stop-color="rgb(100%, 79.753113%, 22.955322%)" offset="0.703125"/><stop stop-opacity="1" stop-color="rgb(100%, 79.498291%, 22.666931%)" offset="0.71875"/><stop stop-opacity="1" stop-color="rgb(100%, 79.244995%, 22.37854%)" offset="0.734375"/><stop stop-opacity="1" stop-color="rgb(100%, 78.991699%, 22.090149%)" offset="0.75"/><stop stop-opacity="1" stop-color="rgb(100%, 78.738403%, 21.801758%)" offset="0.765625"/><stop stop-opacity="1" stop-color="rgb(100%, 78.485107%, 21.511841%)" offset="0.78125"/><stop stop-opacity="1" stop-color="rgb(100%, 78.231812%, 21.22345%)" offset="0.796875"/><stop stop-opacity="1" stop-color="rgb(100%, 77.97699%, 20.935059%)" offset="0.8125"/><stop stop-opacity="1" stop-color="rgb(100%, 77.723694%, 20.646667%)" offset="0.828125"/><stop stop-opacity="1" stop-color="rgb(100%, 77.470398%, 20.358276%)" offset="0.84375"/><stop stop-opacity="1" stop-color="rgb(100%, 77.217102%, 20.069885%)" offset="0.859375"/><stop stop-opacity="1" stop-color="rgb(100%, 76.963806%, 19.781494%)" offset="0.875"/><stop stop-opacity="1" stop-color="rgb(100%, 76.71051%, 19.493103%)" offset="0.890625"/><stop stop-opacity="1" stop-color="rgb(100%, 76.525879%, 19.284058%)" offset="0.90625"/><stop stop-opacity="1" stop-color="rgb(100%, 76.469421%, 19.219971%)" offset="0.9375"/><stop stop-opacity="1" stop-color="rgb(100%, 76.469421%, 19.219971%)" offset="1"/></linearGradient><clipPath id="f291facd93"><path d="M 106 0.0390625 L 133 0.0390625 L 133 91 L 106 91 Z M 106 0.0390625 " clip-rule="nonzero"/></clipPath><clipPath id="925675f0b6"><rect x="0" width="526" y="0" height="111"/></clipPath><clipPath id="1b6880ea0c"><rect x="0" width="261" y="0" height="191"/></clipPath></defs><rect x="-150" width="1800" fill="#ffffff" y="-149.999993" height="1799.99992" fill-opacity="1"/><rect x="-150" width="1800" fill="#ffffff" y="-149.999993" height="1799.99992" fill-opacity="1"/><g clip-path="url(#1a61b59e20)"><path fill="#0078d4" d="M 180.960938 179.058594 L 510.792969 179.058594 L 510.792969 508.828125 L 180.960938 508.828125 Z M 180.960938 179.058594 " fill-opacity="1" fill-rule="nonzero"/></g><path fill="#0078d4" d="M 546.980469 179.058594 L 876.816406 179.058594 L 876.816406 508.828125 L 546.980469 508.828125 Z M 546.980469 179.058594 " fill-opacity="1" fill-rule="nonzero"/><g clip-path="url(#09066087d5)"><path fill="#0078d4" d="M 180.960938 545.039062 L 510.792969 545.039062 L 510.792969 874.808594 L 180.960938 874.808594 Z M 180.960938 545.039062 " fill-opacity="1" fill-rule="nonzero"/></g><path fill="#0078d4" d="M 546.980469 545.039062 L 876.816406 545.039062 L 876.816406 874.808594 L 546.980469 874.808594 Z M 546.980469 545.039062 " fill-opacity="1" fill-rule="nonzero"/><g clip-path="url(#ac6299007b)"><g clip-path="url(#e40c76551d)"><path fill="url(#97f786b980)" d="M 661.921875 1287.132812 L 661.921875 750 L 1197.628906 750 L 1197.628906 1287.132812 Z M 661.921875 1287.132812 " fill-rule="nonzero"/></g></g><g clip-path="url(#6a56f891b2)"><g clip-path="url(#95e262cdb5)"><path fill="url(#18c4510d73)" d="M 846.214844 1470 L 846.214844 932.867188 L 1381.921875 932.867188 L 1381.921875 1470 Z M 846.214844 1470 " fill-rule="nonzero"/></g></g><g transform="matrix(1, 0, 0, 1, 908, 449)"><g clip-path="url(#925675f0b6)"><g fill="#000000" fill-opacity="1"><g transform="translate(0.656352, 76.40574)"><g><path d="M 59.5625 -50.8125 L 66.953125 -24.015625 L 71.1875 -50.8125 L 98.171875 -50.8125 L 80.984375 14.40625 L 58.6875 14.40625 L 50.046875 -9.609375 L 41.40625 14.40625 L 19.109375 14.40625 L 1.921875 -50.8125 L 28.921875 -50.8125 L 33.046875 -24.015625 L 40.53125 -50.8125 Z M 59.5625 -50.8125 "/></g></g></g><g clip-path="url(#f291facd93)"><g fill="#000000" fill-opacity="1"><g transform="translate(100.851077, 76.40574)"><g><path d="M 5.671875 14.40625 L 5.671875 -45.71875 L 31.515625 -45.71875 L 31.515625 14.40625 Z M 18.734375 -76.171875 C 20.648438 -76.171875 22.394531 -75.847656 23.96875 -75.203125 C 25.539062 -74.566406 26.882812 -73.671875 28 -72.515625 C 29.125 -71.367188 29.972656 -70.023438 30.546875 -68.484375 C 31.117188 -66.953125 31.40625 -65.289062 31.40625 -63.5 C 31.40625 -61.769531 31.101562 -60.132812 30.5 -58.59375 C 29.894531 -57.0625 29.046875 -55.734375 27.953125 -54.609375 C 26.867188 -53.492188 25.523438 -52.597656 23.921875 -51.921875 C 22.316406 -51.242188 20.523438 -50.90625 18.546875 -50.90625 C 16.617188 -50.90625 14.882812 -51.242188 13.34375 -51.921875 C 11.8125 -52.597656 10.484375 -53.492188 9.359375 -54.609375 C 8.242188 -55.734375 7.394531 -57.0625 6.8125 -58.59375 C 6.238281 -60.132812 5.953125 -61.769531 5.953125 -63.5 C 5.953125 -65.289062 6.253906 -66.953125 6.859375 -68.484375 C 7.472656 -70.023438 8.320312 -71.367188 9.40625 -72.515625 C 10.5 -73.671875 11.84375 -74.566406 13.4375 -75.203125 C 15.039062 -75.847656 16.804688 -76.171875 18.734375 -76.171875 Z M 18.734375 -76.171875 "/></g></g></g></g><g fill="#000000" fill-opacity="1"><g transform="translate(138.123899, 76.40574)"><g><path d="M 26.421875 -50.8125 L 29.6875 -46.5 C 30.96875 -47.707031 32.3125 -48.679688 33.71875 -49.421875 C 35.125 -50.160156 36.5 -50.738281 37.84375 -51.15625 C 39.1875 -51.570312 40.4375 -51.84375 41.59375 -51.96875 C 42.75 -52.09375 43.773438 -52.15625 44.671875 -52.15625 C 47.804688 -52.15625 50.765625 -51.660156 53.546875 -50.671875 C 56.335938 -49.679688 58.773438 -48.0625 60.859375 -45.8125 C 62.941406 -43.570312 64.585938 -40.644531 65.796875 -37.03125 C 67.015625 -33.414062 67.625 -29.015625 67.625 -23.828125 L 67.625 14.40625 L 41.78125 14.40625 L 41.78125 -22 C 41.78125 -24.050781 41.394531 -25.71875 40.625 -27 C 39.863281 -28.28125 38.585938 -28.921875 36.796875 -28.921875 C 35.703125 -28.921875 34.640625 -28.597656 33.609375 -27.953125 C 32.585938 -27.316406 31.597656 -26.066406 30.640625 -24.203125 L 30.640625 14.40625 L 4.796875 14.40625 L 4.796875 -50.8125 Z M 26.421875 -50.8125 "/></g></g></g><g fill="#000000" fill-opacity="1"><g transform="translate(210.556129, 76.40574)"><g><path d="M 70.21875 14.40625 L 51.296875 14.40625 L 48.609375 10.09375 C 46.753906 11.75 44.609375 13.085938 42.171875 14.109375 C 39.734375 15.140625 36.914062 15.65625 33.71875 15.65625 C 29.9375 15.65625 26.269531 14.929688 22.71875 13.484375 C 19.164062 12.046875 15.976562 9.867188 13.15625 6.953125 C 10.34375 4.046875 8.085938 0.414062 6.390625 -3.9375 C 4.691406 -8.289062 3.84375 -13.382812 3.84375 -19.21875 C 3.84375 -24.207031 4.515625 -28.734375 5.859375 -32.796875 C 7.203125 -36.867188 9.085938 -40.328125 11.515625 -43.171875 C 13.953125 -46.023438 16.835938 -48.234375 20.171875 -49.796875 C 23.503906 -51.367188 27.15625 -52.15625 31.125 -52.15625 C 33.875 -52.15625 36.289062 -51.882812 38.375 -51.34375 C 40.457031 -50.800781 42.425781 -50.082031 44.28125 -49.1875 L 44.28125 -72.046875 L 70.21875 -72.046875 Z M 37.84375 -7.296875 C 39.320312 -7.296875 40.570312 -7.628906 41.59375 -8.296875 C 42.613281 -8.972656 43.507812 -9.828125 44.28125 -10.859375 L 44.28125 -25.84375 C 43.257812 -27.125 42.1875 -28.066406 41.0625 -28.671875 C 39.945312 -29.285156 38.875 -29.59375 37.84375 -29.59375 C 35.09375 -29.59375 33.078125 -28.535156 31.796875 -26.421875 C 30.515625 -24.304688 29.875 -21.679688 29.875 -18.546875 C 29.875 -14.953125 30.578125 -12.175781 31.984375 -10.21875 C 33.398438 -8.269531 35.351562 -7.296875 37.84375 -7.296875 Z M 37.84375 -7.296875 "/></g></g></g><g fill="#000000" fill-opacity="1"><g transform="translate(285.582089, 76.40574)"><g><path d="M 38.140625 -6.4375 C 40.503906 -6.4375 42.421875 -7.269531 43.890625 -8.9375 C 45.367188 -10.601562 46.109375 -13.675781 46.109375 -18.15625 C 46.109375 -26.03125 43.453125 -29.96875 38.140625 -29.96875 C 32.816406 -29.96875 30.15625 -26.03125 30.15625 -18.15625 C 30.15625 -15.914062 30.347656 -14.039062 30.734375 -12.53125 C 31.117188 -11.03125 31.664062 -9.832031 32.375 -8.9375 C 33.082031 -8.039062 33.914062 -7.398438 34.875 -7.015625 C 35.832031 -6.628906 36.921875 -6.4375 38.140625 -6.4375 Z M 3.84375 -18.15625 C 3.84375 -23.914062 4.65625 -28.910156 6.28125 -33.140625 C 7.914062 -37.367188 10.222656 -40.890625 13.203125 -43.703125 C 16.179688 -46.523438 19.785156 -48.625 24.015625 -50 C 28.242188 -51.375 32.953125 -52.0625 38.140625 -52.0625 C 43.328125 -52.0625 48.03125 -51.375 52.25 -50 C 56.476562 -48.625 60.082031 -46.523438 63.0625 -43.703125 C 66.039062 -40.890625 68.347656 -37.367188 69.984375 -33.140625 C 71.617188 -28.910156 72.4375 -23.914062 72.4375 -18.15625 C 72.4375 -12.394531 71.617188 -7.398438 69.984375 -3.171875 C 68.347656 1.054688 66.039062 4.5625 63.0625 7.34375 C 60.082031 10.132812 56.476562 12.21875 52.25 13.59375 C 48.03125 14.96875 43.328125 15.65625 38.140625 15.65625 C 32.953125 15.65625 28.242188 14.96875 24.015625 13.59375 C 19.785156 12.21875 16.179688 10.132812 13.203125 7.34375 C 10.222656 4.5625 7.914062 1.054688 6.28125 -3.171875 C 4.65625 -7.398438 3.84375 -12.394531 3.84375 -18.15625 Z M 3.84375 -18.15625 "/></g></g></g><g fill="#000000" fill-opacity="1"><g transform="translate(361.856862, 76.40574)"><g><path d="M 59.5625 -50.8125 L 66.953125 -24.015625 L 71.1875 -50.8125 L 98.171875 -50.8125 L 80.984375 14.40625 L 58.6875 14.40625 L 50.046875 -9.609375 L 41.40625 14.40625 L 19.109375 14.40625 L 1.921875 -50.8125 L 28.921875 -50.8125 L 33.046875 -24.015625 L 40.53125 -50.8125 Z M 59.5625 -50.8125 "/></g></g></g><g fill="#000000" fill-opacity="1"><g transform="translate(462.051593, 76.40574)"><g><path d="M 4.03125 -10.1875 C 5.4375 -9.414062 7.289062 -8.691406 9.59375 -8.015625 C 11.90625 -7.347656 14.273438 -6.753906 16.703125 -6.234375 C 19.140625 -5.722656 21.476562 -5.320312 23.71875 -5.03125 C 25.96875 -4.75 27.703125 -4.609375 28.921875 -4.609375 C 30.003906 -4.609375 30.863281 -4.671875 31.5 -4.796875 C 32.144531 -4.929688 32.5 -5.253906 32.5625 -5.765625 C 32.625 -6.273438 32.078125 -6.753906 30.921875 -7.203125 C 29.773438 -7.648438 28.019531 -8.226562 25.65625 -8.9375 C 21.8125 -10.15625 18.523438 -11.578125 15.796875 -13.203125 C 13.078125 -14.835938 10.820312 -16.628906 9.03125 -18.578125 C 7.238281 -20.535156 5.925781 -22.570312 5.09375 -24.6875 C 4.257812 -26.800781 3.84375 -28.945312 3.84375 -31.125 C 3.84375 -38.425781 6.40625 -43.738281 11.53125 -47.0625 C 16.65625 -50.394531 23.765625 -52.0625 32.859375 -52.0625 C 36.890625 -52.0625 40.773438 -51.691406 44.515625 -50.953125 C 48.265625 -50.222656 51.710938 -49.15625 54.859375 -47.75 L 54.859375 -27.5625 C 53.703125 -28.082031 52.226562 -28.597656 50.4375 -29.109375 C 48.644531 -29.617188 46.753906 -30.066406 44.765625 -30.453125 C 42.773438 -30.835938 40.785156 -31.140625 38.796875 -31.359375 C 36.816406 -31.585938 35.03125 -31.703125 33.4375 -31.703125 C 32.726562 -31.703125 32.082031 -31.632812 31.5 -31.5 C 30.925781 -31.375 30.640625 -31.15625 30.640625 -30.84375 C 30.640625 -30.644531 30.75 -30.398438 30.96875 -30.109375 C 31.195312 -29.828125 31.953125 -29.492188 33.234375 -29.109375 C 36.179688 -28.273438 39.175781 -27.34375 42.21875 -26.3125 C 45.257812 -25.289062 48.03125 -23.929688 50.53125 -22.234375 C 53.03125 -20.535156 55.09375 -18.40625 56.71875 -15.84375 C 58.351562 -13.28125 59.234375 -10.046875 59.359375 -6.140625 C 59.679688 0.960938 57.296875 6.367188 52.203125 10.078125 C 47.117188 13.796875 39.289062 15.65625 28.71875 15.65625 C 24.300781 15.65625 20.007812 15.238281 15.84375 14.40625 C 11.6875 13.570312 7.75 12.257812 4.03125 10.46875 Z M 4.03125 -10.1875 "/></g></g></g></g></g><g transform="matrix(1, 0, 0, 1, 400, 960)"><g clip-path="url(#1b6880ea0c)"><g fill="#000000" fill-opacity="1"><g transform="translate(0.780544, 131.728379)"><g><path d="M 40.84375 -87.46875 L 45.46875 -79.703125 C 49.4375 -83.117188 54.039062 -85.65625 59.28125 -87.3125 C 64.519531 -88.96875 69.945312 -89.796875 75.5625 -89.796875 C 82.40625 -89.796875 88.691406 -88.441406 94.421875 -85.734375 C 100.148438 -83.035156 105.109375 -79.234375 109.296875 -74.328125 C 113.492188 -69.421875 116.75 -63.46875 119.0625 -56.46875 C 121.375 -49.46875 122.53125 -41.671875 122.53125 -33.078125 C 122.53125 -23.046875 121.066406 -14.28125 118.140625 -6.78125 C 115.222656 0.71875 111.335938 6.972656 106.484375 11.984375 C 101.640625 17.003906 96.128906 20.753906 89.953125 23.234375 C 83.785156 25.710938 77.503906 26.953125 71.109375 26.953125 C 67.578125 26.953125 64.296875 26.566406 61.265625 25.796875 C 58.234375 25.023438 55.453125 23.976562 52.921875 22.65625 L 52.921875 57.703125 L 8.265625 57.703125 L 8.265625 -87.46875 Z M 64 -50.9375 C 62.226562 -50.9375 60.347656 -50.410156 58.359375 -49.359375 C 56.378906 -48.304688 54.566406 -46.679688 52.921875 -44.484375 L 52.921875 -18.6875 C 54.128906 -16.925781 55.640625 -15.460938 57.453125 -14.296875 C 59.273438 -13.140625 61.457031 -12.5625 64 -12.5625 C 68.289062 -12.5625 71.648438 -14.242188 74.078125 -17.609375 C 76.503906 -20.972656 77.71875 -25.742188 77.71875 -31.921875 C 77.71875 -37.316406 76.613281 -41.832031 74.40625 -45.46875 C 72.207031 -49.113281 68.738281 -50.9375 64 -50.9375 Z M 64 -50.9375 "/></g></g></g><g fill="#000000" fill-opacity="1"><g transform="translate(129.932088, 131.728379)"><g><path d="M 13.0625 19.1875 C 14.820312 19.070312 17.082031 18.789062 19.84375 18.34375 C 22.601562 17.90625 25.441406 17.191406 28.359375 16.203125 C 31.273438 15.210938 34.113281 13.890625 36.875 12.234375 C 39.632812 10.578125 41.945312 8.484375 43.8125 5.953125 L 3.3125 -87.46875 L 52.578125 -87.46875 L 66.46875 -44.15625 L 78.375 -87.46875 L 126.5 -87.46875 L 90.453125 4.296875 C 86.816406 13.671875 82.738281 21.691406 78.21875 28.359375 C 73.695312 35.023438 68.375 40.507812 62.25 44.8125 C 56.132812 49.113281 49.082031 52.3125 41.09375 54.40625 C 33.101562 56.5 23.757812 57.597656 13.0625 57.703125 Z M 13.0625 19.1875 "/></g></g></g></g></g></svg>